<?xml version="1.0" encoding="utf-8"?>
<!-- Generator: Adobe Illustrator 19.1.0, SVG Export Plug-In . SVG Version: 6.00 Build 0)  -->
<svg version="1.1" id="Layer_1" xmlns="http://www.w3.org/2000/svg" xmlns:xlink="http://www.w3.org/1999/xlink" x="0px" y="0px"
	 viewBox="0 0 216.2 216.2" style="enable-background:new 0 0 216.2 216.2;" xml:space="preserve">
<style type="text/css">
	.st0{fill:none;stroke:#{icon_color};stroke-miterlimit:10;}
	.st1{fill:none;stroke:#{icon_color};stroke-width:3;stroke-linecap:round;stroke-miterlimit:10;}
	.st2{fill:none;stroke:#{icon_color};stroke-width:4;stroke-linecap:round;stroke-miterlimit:10;}
	.st3{fill:#{icon_color};}
	.st4{fill:#FFFFFF;stroke:#{icon_color};stroke-width:3;stroke-linecap:round;stroke-linejoin:round;stroke-miterlimit:10;}
	.st5{fill:#FFFFFF;stroke:#{icon_color};stroke-width:3;stroke-linecap:round;stroke-miterlimit:10;}
	.st6{fill:none;stroke:#{icon_color};stroke-width:3;stroke-linecap:round;stroke-linejoin:round;stroke-miterlimit:10;}
	.st7{fill:#FFFFFF;}
	.st8{fill:#92E214;}
	.st9{fill:#2E3A31;}
</style>
<g>
	<g>
		<path class="st3" d="M137.6,153.2c-3.2,0-5.7-2.6-5.7-5.7c0-3.2,2.6-5.7,5.7-5.7c10.4,0,19-7.4,19.2-16.5L152.3,97
			c-0.3-1.6,0.2-3.2,1.2-4.5c1-1.3,2.5-2,4.1-2.2c14.2-1,25.4-13,25.4-27.2c0-15.1-12.3-27.3-27.3-27.3c-13.6,0-25.3,10.2-27.1,23.7
			c-0.4,2.8-2.8,5-5.7,5H93.5c-2.9,0-5.3-2.1-5.7-5C86,45.9,74.4,35.8,60.7,35.8c-15.1,0-27.4,12.3-27.4,27.3
			c0,14.3,11.1,26.2,25.4,27.2c1.6,0.1,3.1,0.9,4.1,2.2c1,1.3,1.4,2.9,1.2,4.5l-4.6,28.3c0.3,9.1,8.8,16.5,19.2,16.5
			c3.2,0,5.7,2.6,5.7,5.7c0,3.2-2.6,5.7-5.7,5.7c-16.9,0-30.7-12.7-30.7-28.4c0-0.3,0-0.6,0.1-0.9l3.7-23.1
			c-17.2-4.1-29.8-19.6-29.8-37.7c0-21.4,17.4-38.8,38.8-38.8c17.6,0,32.9,12,37.4,28.7h19.9c4.5-16.7,19.8-28.7,37.4-28.7
			c21.4,0,38.8,17.4,38.8,38.8c0,18.1-12.7,33.6-29.8,37.7l3.7,23.1c0,0.3,0.1,0.6,0.1,0.9C168.3,140.4,154.5,153.2,137.6,153.2z"/>
	</g>
	<g>
		<g>
			<path class="st3" d="M108.1,127.8c-4.2,0-7.6-3.4-7.6-7.6v-15.8c0-4.2,3.4-7.6,7.6-7.6s7.6,3.4,7.6,7.6v15.8
				C115.8,124.4,112.3,127.8,108.1,127.8z"/>
		</g>
		<g>
			<circle class="st3" cx="80.8" cy="100.3" r="8.4"/>
		</g>
		<g>
			<circle class="st3" cx="135.4" cy="100.3" r="8.4"/>
		</g>
	</g>
	<g>
		<path class="st3" d="M123,138.6c-1.3-0.8-2.9-0.8-4.2,0l-10.6,6.1l-10.6-6.1c-1.3-0.8-2.9-0.8-4.2,0c-1.3,0.8-2.1,2.2-2.1,3.7V157
			c0,1.5,0.8,2.9,2.1,3.7c0.7,0.4,1.4,0.6,2.1,0.6c0.7,0,1.5-0.2,2.1-0.6l10.6-6.1l10.6,6.1c0.7,0.4,1.4,0.6,2.1,0.6
			c0.7,0,1.5-0.2,2.1-0.6c1.3-0.8,2.1-2.2,2.1-3.7v-14.8C125.1,140.8,124.3,139.4,123,138.6z"/>
	</g>
</g>
<g>
	<path d="M77.2,189.6l-0.3-12.3l-4.5,12.3h-2l-4.6-12.4l-0.3,12.4h-1.9l0.5-14.8h2.6l4.7,12.7l4.6-12.7h2.6l0.5,14.8H77.2z"/>
	<path d="M95,183.7v5.8h-1.9v-5.9l-5.2-9H90l4.1,7.1l4-7.1h2.1L95,183.7z"/>
	<path d="M109.5,189.6v-14.8h1.9v13.1h7.1v1.8H109.5z"/>
	<path d="M128.2,189.6v-14.8h9.3v1.8h-7.4v4.7h6.2v1.8h-6.2v4.8h7.4v1.8H128.2z"/>
	<path d="M151.7,188.2c1,0,1.8-0.2,2.4-0.7c0.6-0.5,0.9-1.1,0.9-1.8c0-0.8-0.3-1.4-0.9-1.8c-0.6-0.4-1.5-0.7-2.7-1.1
		c-0.5-0.2-1-0.4-1.6-0.5c-0.5-0.2-1-0.5-1.4-0.8c-0.4-0.3-0.8-0.7-1-1.2s-0.4-1.1-0.4-1.7c0-1.2,0.5-2.2,1.4-3s2.1-1.1,3.6-1.1
		c0.9,0,1.7,0.1,2.5,0.3c0.8,0.2,1.5,0.5,2.2,0.9l-0.6,1.7c-0.6-0.4-1.3-0.7-2-0.9s-1.4-0.3-2.1-0.3c-1,0-1.8,0.2-2.3,0.7
		c-0.5,0.5-0.7,1-0.7,1.6c0,0.8,0.3,1.3,1,1.7c0.6,0.4,1.5,0.7,2.6,1c0.5,0.1,1.1,0.3,1.6,0.5c0.5,0.2,1,0.5,1.4,0.8
		c0.4,0.3,0.7,0.7,1,1.2c0.2,0.5,0.4,1.1,0.4,1.8c0,0.6-0.1,1.2-0.4,1.7s-0.6,1-1.1,1.4c-0.5,0.4-1,0.7-1.6,0.9s-1.3,0.3-2.1,0.3
		c-0.9,0-1.7-0.1-2.6-0.4c-0.9-0.2-1.6-0.6-2.3-1l0.6-1.7c0.7,0.4,1.4,0.8,2.1,1S150.8,188.2,151.7,188.2z"/>
</g>
</svg>
